<?xml version="1.0" encoding="utf-8"?>
<!-- Generator: Adobe Illustrator 24.0.0, SVG Export Plug-In . SVG Version: 6.00 Build 0)  -->
<svg version="1.1" id="Layer_1" xmlns="http://www.w3.org/2000/svg" xmlns:xlink="http://www.w3.org/1999/xlink" x="0px" y="0px"
	 viewBox="0 0 177 177" style="enable-background:new 0 0 177 177;" xml:space="preserve">
<style type="text/css">
	.st0{fill:none;stroke:#FFFFFF;stroke-width:11.328;stroke-linecap:round;stroke-miterlimit:10;}
	.st1{fill:#FFFFFF;}
</style>
<path class="st0" d="M165.4,63c2.8,7.9,4,16.7,4,25.6c0,44.7-36.2,80.9-80.9,80.9S7.6,133.2,7.6,88.5S43.8,7.6,88.5,7.6
	c18.3,0,35.3,6.1,48.7,16.3"/>
<g>
	<circle class="st1" cx="88.5" cy="88.5" r="12.1"/>
	<circle class="st1" cx="89.6" cy="87.7" r="12"/>
	<circle class="st1" cx="90.8" cy="86.9" r="11.8"/>
	<circle class="st1" cx="91.9" cy="86.1" r="11.7"/>
	<circle class="st1" cx="93" cy="85.3" r="11.5"/>
	<circle class="st1" cx="94.2" cy="84.5" r="11.3"/>
	<circle class="st1" cx="95.5" cy="83.8" r="11.2"/>
	<circle class="st1" cx="96.6" cy="83" r="11"/>
	<circle class="st1" cx="97.7" cy="82.2" r="10.8"/>
	<circle class="st1" cx="98.9" cy="81.4" r="10.7"/>
	<circle class="st1" cx="100" cy="80.6" r="10.5"/>
	<circle class="st1" cx="101.1" cy="79.8" r="10.4"/>
	<circle class="st1" cx="102.3" cy="79.1" r="10.2"/>
	<circle class="st1" cx="103.4" cy="78.3" r="10"/>
	<circle class="st1" cx="104.5" cy="77.5" r="9.9"/>
	<circle class="st1" cx="105.7" cy="76.7" r="9.7"/>
	<circle class="st1" cx="106.8" cy="75.9" r="9.5"/>
	<circle class="st1" cx="107.9" cy="75.1" r="9.4"/>
	<circle class="st1" cx="109.2" cy="74.3" r="9.2"/>
	<circle class="st1" cx="110.3" cy="73.6" r="9.1"/>
	<circle class="st1" cx="111.5" cy="72.8" r="8.9"/>
	<circle class="st1" cx="112.6" cy="72" r="8.7"/>
	<circle class="st1" cx="113.7" cy="71.2" r="8.6"/>
	<circle class="st1" cx="114.9" cy="70.4" r="8.4"/>
	<circle class="st1" cx="116" cy="69.6" r="8.3"/>
	<circle class="st1" cx="117.1" cy="68.9" r="7.9"/>
	<circle class="st1" cx="118.3" cy="68.1" r="7.8"/>
	<circle class="st1" cx="119.4" cy="67.3" r="7.6"/>
	<circle class="st1" cx="120.5" cy="66.5" r="7.4"/>
	<circle class="st1" cx="121.8" cy="65.7" r="7.3"/>
	<circle class="st1" cx="123" cy="64.9" r="7.1"/>
	<circle class="st1" cx="124.1" cy="64.1" r="7"/>
	<circle class="st1" cx="125.2" cy="63.4" r="6.8"/>
	<circle class="st1" cx="126.4" cy="62.6" r="6.6"/>
	<circle class="st1" cx="127.5" cy="61.8" r="6.5"/>
	<circle class="st1" cx="128.6" cy="61" r="6.3"/>
	<circle class="st1" cx="129.8" cy="60.2" r="6.1"/>
	<circle class="st1" cx="130.9" cy="59.4" r="6"/>
	<circle class="st1" cx="132" cy="58.7" r="5.8"/>
	<circle class="st1" cx="133.2" cy="57.9" r="5.7"/>
	<circle class="st1" cx="134.3" cy="57.1" r="5.5"/>
	<circle class="st1" cx="135.6" cy="56.3" r="5.3"/>
	<circle class="st1" cx="136.7" cy="55.5" r="5.2"/>
	<circle class="st1" cx="137.9" cy="54.7" r="5"/>
	<circle class="st1" cx="139" cy="53.9" r="4.9"/>
	<circle class="st1" cx="140.1" cy="53.2" r="4.7"/>
	<circle class="st1" cx="141.3" cy="52.4" r="4.5"/>
	<circle class="st1" cx="142.4" cy="51.6" r="4.4"/>
	<circle class="st1" cx="143.5" cy="50.8" r="4.2"/>
	<circle class="st1" cx="144.7" cy="50" r="4"/>
</g>
</svg>
